<?xml version="1.0" standalone="no"?>
<!DOCTYPE svg PUBLIC "-//W3C//DTD SVG 20010904//EN"
 "http://www.w3.org/TR/2001/REC-SVG-20010904/DTD/svg10.dtd">
<svg version="1.0" xmlns="http://www.w3.org/2000/svg"
 width="64.000000pt" height="64.000000pt" viewBox="0 0 64.000000 64.000000"
 preserveAspectRatio="xMidYMid meet">

<g transform="translate(0.000000,64.000000) scale(0.100000,-0.100000)"
fill="#ffff00" stroke="none">
<path d="M280 620 c0 -18 -7 -20 -75 -20 l-75 0 0 -220 c0 -213 1 -220 20
-220 25 0 25 -3 -5 -80 -14 -35 -25 -67 -25 -72 0 -15 58 -8 64 7 8 22 264 22
272 0 6 -15 64 -22 64 -7 0 5 -11 37 -25 72 -30 77 -30 80 -5 80 15 0 20 7 20
25 0 14 -4 25 -10 25 -5 0 -10 -7 -10 -15 0 -13 -26 -15 -170 -15 l-170 0 0
200 0 200 170 0 170 0 0 -115 c0 -70 4 -115 10 -115 6 0 10 48 10 125 l0 125
-75 0 c-68 0 -75 2 -75 20 0 17 -7 20 -40 20 -33 0 -40 -3 -40 -20z m60 -10
c0 -5 -9 -10 -20 -10 -11 0 -20 5 -20 10 0 6 9 10 20 10 11 0 20 -4 20 -10z
m-151 -519 c-12 -34 -26 -64 -30 -67 -14 -8 -11 6 12 66 24 63 29 73 36 66 3
-2 -5 -32 -18 -65z m228 32 l13 -33 -110 0 -110 0 11 26 c5 15 12 31 15 36 3
5 42 7 87 6 l81 -3 13 -32z m52 -33 c23 -60 26 -80 12 -64 -10 10 -51 113 -51
129 0 20 19 -12 39 -65z m-29 -30 c0 -6 -47 -10 -120 -10 -73 0 -120 4 -120
10 0 6 47 10 120 10 73 0 120 -4 120 -10z"/>
<path d="M170 380 l0 -180 150 0 c143 0 150 1 150 20 0 11 -4 20 -10 20 -5 0
-10 -4 -10 -10 0 -6 -50 -10 -130 -10 l-130 0 0 25 c0 19 5 25 22 25 12 0 32
10 45 22 l23 22 33 -32 c38 -36 51 -41 42 -13 -7 23 12 38 28 22 6 -6 23 -11
37 -11 17 0 40 -15 70 -45 48 -49 83 -56 88 -20 1 13 -25 49 -78 105 -44 47
-81 89 -83 93 -1 5 -18 9 -37 10 -52 3 -52 -30 -1 -79 40 -37 50 -64 11 -29
-19 17 -21 17 -40 0 -20 -18 -21 -18 -45 5 l-25 24 -28 -27 c-51 -49 -62 -39
-62 61 0 85 1 89 25 100 14 7 30 23 37 37 11 24 15 25 105 25 l93 0 0 -80 c0
-47 4 -80 10 -80 6 0 10 37 10 90 l0 90 -150 0 -150 0 0 -180z m64 145 c-4 -9
-15 -20 -25 -26 -16 -8 -19 -6 -19 16 0 20 5 25 25 25 18 0 23 -4 19 -15z
m160 -121 c23 -9 20 -34 -4 -34 -11 0 -20 2 -20 4 0 2 -3 11 -6 20 -6 17 4 20
30 10z m60 -63 c14 -15 14 -20 3 -30 -12 -9 -18 -6 -30 13 -24 36 -3 50 27 17z
m71 -81 c21 -22 36 -43 32 -47 -8 -7 -87 65 -87 79 0 17 17 7 55 -32z"/>
<path d="M347 513 c-11 -10 -8 -73 3 -73 6 0 10 14 10 30 0 17 5 30 10 30 6 0
10 -7 10 -15 0 -9 7 -18 15 -21 8 -4 15 -12 15 -20 0 -8 5 -14 10 -14 15 0 12
40 -4 46 -8 3 -16 14 -19 25 -5 18 -36 26 -50 12z"/>
<path d="M273 474 c-7 -18 20 -44 44 -44 16 0 17 15 3 41 -13 23 -38 25 -47 3z"/>
<path d="M275 396 c-21 -15 -15 -46 9 -46 15 0 36 29 36 49 0 15 -23 14 -45
-3z"/>
</g>
</svg>
