<?xml version="1.0" standalone="no"?>
<!DOCTYPE svg PUBLIC "-//W3C//DTD SVG 20010904//EN"
 "http://www.w3.org/TR/2001/REC-SVG-20010904/DTD/svg10.dtd">
<svg version="1.0" xmlns="http://www.w3.org/2000/svg"
 width="64.000000pt" height="64.000000pt" viewBox="0 0 64.000000 64.000000"
 preserveAspectRatio="xMidYMid meet">

<g transform="translate(0.000000,64.000000) scale(0.100000,-0.100000)"
fill="#ffff00" stroke="none">
<path d="M286 598 c-18 -26 -98 -58 -126 -51 -27 7 -50 -14 -50 -45 0 -38 -31
-115 -52 -130 -23 -17 -23 -67 0 -84 21 -15 52 -92 52 -130 0 -32 23 -52 51
-45 12 3 36 -2 53 -11 l31 -17 -64 -3 c-60 -3 -66 -1 -92 27 -15 17 -37 31
-48 31 -19 0 -21 -6 -21 -60 l0 -60 300 0 c193 0 300 4 300 10 0 6 -7 10 -15
10 -19 0 -19 14 1 30 19 17 14 60 -9 74 -40 25 -75 -38 -41 -75 25 -28 8 -37
-29 -14 -18 10 -54 21 -82 25 l-50 5 31 17 c17 9 41 14 53 11 28 -7 51 13 51
45 0 38 31 115 52 130 23 17 23 67 0 84 -21 15 -52 92 -52 130 0 31 -23 52
-50 45 -28 -7 -108 25 -126 51 -8 12 -24 22 -34 22 -10 0 -26 -10 -34 -22z
m49 -8 c3 -5 -3 -10 -15 -10 -12 0 -18 5 -15 10 3 6 10 10 15 10 5 0 12 -4 15
-10z m-25 -92 c0 -7 -20 -21 -45 -32 -52 -21 -75 -11 -75 31 0 19 9 28 42 43
l41 18 19 -23 c10 -13 18 -29 18 -37z m22 50 c-9 -9 -15 -9 -24 0 -9 9 -7 12
12 12 19 0 21 -3 12 -12z m99 -18 c23 -13 25 -52 4 -70 -12 -10 -24 -8 -60 6
-49 21 -54 33 -28 68 18 24 32 24 84 -4z m-266 -10 c3 -5 -3 -10 -15 -10 -12
0 -18 5 -15 10 3 6 10 10 15 10 5 0 12 -4 15 -10z m340 0 c3 -5 -3 -10 -15
-10 -12 0 -18 5 -15 10 3 6 10 10 15 10 5 0 12 -4 15 -10z m-343 -42 c-9 -9
-15 -9 -24 0 -9 9 -7 12 12 12 19 0 21 -3 12 -12z m340 0 c-9 -9 -15 -9 -24 0
-9 9 -7 12 12 12 19 0 21 -3 12 -12z m-318 -92 c-22 -53 -52 -62 -74 -22 -28
53 36 117 79 80 12 -11 11 -19 -5 -58z m126 36 c0 -52 -9 -57 -42 -25 -35 33
-35 39 0 51 41 16 42 15 42 -26z m59 27 c17 -6 31 -14 31 -18 0 -13 -56 -61
-63 -54 -7 6 -10 83 -3 83 1 0 17 -5 35 -11z m162 -31 c15 -36 -3 -78 -35 -78
-27 0 -65 83 -47 103 19 24 68 9 82 -25z m-278 -36 c15 -16 24 -31 20 -35 -6
-7 -83 -10 -83 -3 0 13 23 66 29 66 4 0 19 -13 34 -28z m186 -3 c6 -18 11 -34
11 -35 0 -7 -77 -4 -83 3 -7 7 41 63 54 63 4 0 12 -14 18 -31z m-344 -29 c3
-5 -3 -10 -15 -10 -12 0 -18 5 -15 10 3 6 10 10 15 10 5 0 12 -4 15 -10z m250
-20 c0 -18 -6 -26 -23 -28 -13 -2 -25 3 -28 12 -10 26 4 48 28 44 17 -2 23
-10 23 -28z m230 20 c3 -5 -3 -10 -15 -10 -12 0 -18 5 -15 10 3 6 10 10 15 10
5 0 12 -4 15 -10z m-483 -42 c-9 -9 -15 -9 -24 0 -9 9 -7 12 12 12 19 0 21 -3
12 -12z m92 -33 c22 -54 12 -74 -33 -67 -39 5 -60 51 -41 88 22 40 52 31 74
-21z m89 38 c7 -7 -41 -63 -54 -63 -6 0 -29 53 -29 66 0 7 77 4 83 -3z m177 3
c0 -13 -23 -66 -29 -66 -13 0 -61 56 -54 63 6 7 83 10 83 3z m80 -20 c19 -37
-2 -83 -41 -88 -45 -7 -55 13 -33 67 22 52 52 61 74 21z m42 12 c-9 -9 -15 -9
-24 0 -9 9 -7 12 12 12 19 0 21 -3 12 -12z m-288 -66 c-7 -34 -11 -37 -34 -22
-12 7 -11 13 9 34 29 31 33 29 25 -12z m50 16 c11 -42 7 -58 -14 -58 -12 0
-20 7 -20 18 0 27 12 62 20 62 4 0 10 -10 14 -22z m66 -29 c0 -7 -31 -22 -35
-17 -2 2 -6 19 -10 38 l-7 35 26 -24 c14 -14 26 -28 26 -32z m-150 -29 c16 -8
17 -14 7 -45 -11 -38 -17 -41 -48 -25 -21 12 -25 50 -7 68 15 15 24 15 48 2z
m188 -2 c18 -18 14 -56 -7 -68 -30 -16 -37 -13 -48 23 -8 28 -7 36 6 45 21 14
35 14 49 0z m-273 -18 c3 -5 -3 -10 -15 -10 -12 0 -18 5 -15 10 3 6 10 10 15
10 5 0 12 -4 15 -10z m340 0 c3 -5 -3 -10 -15 -10 -12 0 -18 5 -15 10 3 6 10
10 15 10 5 0 12 -4 15 -10z m-141 -22 c3 -13 6 -32 6 -43 -1 -17 -4 -16 -25
10 l-25 30 -25 -30 c-21 -26 -24 -27 -25 -10 0 51 11 65 50 65 31 0 39 -4 44
-22z m-202 -20 c-9 -9 -15 -9 -24 0 -9 9 -7 12 12 12 19 0 21 -3 12 -12z m340
0 c-9 -9 -15 -9 -24 0 -9 9 -7 12 12 12 19 0 21 -3 12 -12z m96 -29 c2 -9 -5
-15 -18 -15 -11 0 -20 5 -20 11 0 28 33 31 38 4z m-538 -29 c0 -22 -4 -40 -10
-40 -5 0 -10 18 -10 40 0 22 5 40 10 40 6 0 10 -18 10 -40z m275 30 c3 -5 -3
-10 -15 -10 -12 0 -18 5 -15 10 3 6 10 10 15 10 5 0 12 -4 15 -10z m-235 -56
c0 -8 -4 -14 -10 -14 -5 0 -10 9 -10 21 0 11 5 17 10 14 6 -3 10 -13 10 -21z
m250 6 c0 -22 -15 -27 -24 -7 -5 10 -7 10 -12 0 -9 -20 -24 -15 -24 7 0 16 7
20 30 20 23 0 30 -4 30 -20z m-210 -10 c0 -5 -4 -10 -10 -10 -5 0 -10 5 -10
10 0 6 5 10 10 10 6 0 10 -4 10 -10z m40 0 c0 -5 -4 -10 -10 -10 -5 0 -10 5
-10 10 0 6 5 10 10 10 6 0 10 -4 10 -10z m45 0 c-3 -5 -10 -10 -16 -10 -5 0
-9 5 -9 10 0 6 7 10 16 10 8 0 12 -4 9 -10z m45 0 c0 -5 -7 -10 -16 -10 -8 0
-12 5 -9 10 3 6 10 10 16 10 5 0 9 -4 9 -10z m125 0 c3 -5 -1 -10 -9 -10 -9 0
-16 5 -16 10 0 6 4 10 9 10 6 0 13 -4 16 -10z m35 0 c0 -5 -2 -10 -4 -10 -3 0
-8 5 -11 10 -3 6 -1 10 4 10 6 0 11 -4 11 -10z m40 0 c0 -5 -4 -10 -10 -10 -5
0 -10 5 -10 10 0 6 5 10 10 10 6 0 10 -4 10 -10z"/>
</g>
</svg>
