<?xml version="1.0" standalone="no"?>
<!DOCTYPE svg PUBLIC "-//W3C//DTD SVG 20010904//EN"
 "http://www.w3.org/TR/2001/REC-SVG-20010904/DTD/svg10.dtd">
<svg version="1.0" xmlns="http://www.w3.org/2000/svg"
 width="50.000000pt" height="50.000000pt" viewBox="0 0 50.000000 50.000000"
 preserveAspectRatio="xMidYMid meet">

<g transform="translate(0.000000,50.000000) scale(0.100000,-0.100000)"
fill="#ffff00" stroke="none">
<path d="M170 468 c-58 -29 -118 -118 -80 -118 6 0 10 7 10 17 0 26 76 91 115
99 60 11 106 -4 147 -47 21 -22 38 -46 38 -54 0 -8 5 -15 10 -15 17 0 11 25
-13 61 -27 41 -98 79 -147 79 -20 0 -56 -10 -80 -22z"/>
<path d="M55 317 c-3 -7 -5 -54 -3 -103 3 -88 3 -89 28 -89 l25 0 0 100 c0 96
-1 100 -23 103 -12 2 -24 -3 -27 -11z"/>
<path d="M395 317 c-3 -7 -5 -54 -3 -103 3 -88 3 -89 28 -89 l25 0 0 100 c0
96 -1 100 -23 103 -12 2 -24 -3 -27 -11z"/>
<path d="M10 271 c-14 -28 -12 -74 5 -97 13 -17 14 -13 15 49 0 37 -2 67 -5
67 -2 0 -9 -9 -15 -19z"/>
<path d="M471 225 c0 -64 1 -68 14 -51 8 11 15 34 15 51 0 17 -7 40 -15 51
-13 17 -14 13 -14 -51z"/>
</g>
</svg>
