<?xml version="1.0" standalone="no"?>
<!DOCTYPE svg PUBLIC "-//W3C//DTD SVG 20010904//EN"
 "http://www.w3.org/TR/2001/REC-SVG-20010904/DTD/svg10.dtd">
<svg version="1.0" xmlns="http://www.w3.org/2000/svg"
 width="50.000000pt" height="50.000000pt" viewBox="0 0 50.000000 50.000000"
 preserveAspectRatio="xMidYMid meet">

<g transform="translate(0.000000,50.000000) scale(0.100000,-0.100000)"
fill="#ffff00" stroke="none">
<path d="M185 466 c-88 -40 -129 -140 -89 -219 9 -18 39 -55 65 -84 27 -28 49
-57 49 -62 0 -6 18 -11 40 -11 22 0 40 5 40 11 0 5 22 34 49 62 86 92 100 148
58 227 -40 75 -136 110 -212 76z m38 -27 c-28 -56 -29 -158 -2 -238 12 -39 25
-71 29 -71 3 0 15 26 25 58 26 74 27 203 3 249 -15 31 -15 32 0 24 54 -29 91
-116 78 -182 -8 -44 -86 -168 -106 -168 -15 0 -59 61 -92 129 -33 67 -11 162
47 208 36 28 36 28 18 -9z"/>
<path d="M212 53 c3 -25 7 -28 38 -28 31 0 35 3 38 28 3 26 1 27 -38 27 -39 0
-41 -1 -38 -27z"/>
</g>
</svg>
