<?xml version="1.0" standalone="no"?>
<!DOCTYPE svg PUBLIC "-//W3C//DTD SVG 20010904//EN"
 "http://www.w3.org/TR/2001/REC-SVG-20010904/DTD/svg10.dtd">
<svg version="1.0" xmlns="http://www.w3.org/2000/svg"
 width="50.000000pt" height="50.000000pt" viewBox="0 0 50.000000 50.000000"
 preserveAspectRatio="xMidYMid meet">

<g transform="translate(0.000000,50.000000) scale(0.100000,-0.100000)"
fill="#ffff00" stroke="none">
<path d="M24 437 c-2 -7 -3 -80 -2 -162 l3 -150 225 0 225 0 0 160 0 160 -223
3 c-176 2 -224 0 -228 -11z m436 -122 l0 -115 -210 0 -210 0 0 115 0 115 210
0 210 0 0 -115z m-30 -155 c0 -5 -4 -10 -10 -10 -5 0 -10 5 -10 10 0 6 5 10
10 10 6 0 10 -4 10 -10z"/>
<path d="M190 91 c0 -5 -12 -11 -27 -13 -17 -2 -29 -10 -31 -20 -3 -16 8 -18
118 -18 110 0 121 2 118 18 -2 10 -14 18 -31 20 -15 2 -27 8 -27 13 0 5 -27 9
-60 9 -33 0 -60 -4 -60 -9z"/>
</g>
</svg>
