<?xml version="1.0" standalone="no"?>
<!DOCTYPE svg PUBLIC "-//W3C//DTD SVG 20010904//EN"
 "http://www.w3.org/TR/2001/REC-SVG-20010904/DTD/svg10.dtd">
<svg version="1.0" xmlns="http://www.w3.org/2000/svg"
 width="64.000000pt" height="64.000000pt" viewBox="0 0 64.000000 64.000000"
 preserveAspectRatio="xMidYMid meet">

<g transform="translate(0.000000,64.000000) scale(0.100000,-0.100000)"
fill="#ffff00" stroke="none">
<path d="M126 574 c-9 -8 -16 -25 -16 -38 0 -12 -6 -28 -12 -35 -10 -11 -10
-14 0 -18 16 -6 16 -55 0 -72 -10 -11 -10 -14 0 -18 16 -6 16 -60 0 -67 -10
-5 -10 -7 0 -12 16 -7 16 -71 0 -78 -10 -5 -10 -7 0 -12 16 -7 16 -61 0 -67
-10 -4 -10 -7 0 -18 6 -7 12 -23 12 -35 0 -50 17 -54 224 -54 136 0 195 3 204
12 17 17 17 499 0 516 -9 9 -68 12 -204 12 -162 0 -195 -3 -208 -16z m344
-174 l0 -90 -135 0 -135 0 0 90 0 90 135 0 135 0 0 -90z m0 -170 c0 -6 -52
-10 -135 -10 -83 0 -135 4 -135 10 0 6 52 10 135 10 83 0 135 -4 135 -10z m0
-70 c0 -6 -52 -10 -135 -10 -83 0 -135 4 -135 10 0 6 52 10 135 10 83 0 135
-4 135 -10z"/>
<path d="M224 457 c-3 -8 -4 -39 -2 -68 l3 -54 110 0 110 0 0 65 0 65 -108 3
c-85 2 -108 0 -113 -11z"/>
</g>
</svg>
